<svg width="24" height="25" viewBox="0 0 24 25" fill="none" xmlns="http://www.w3.org/2000/svg">
<path fill-rule="evenodd" clip-rule="evenodd" d="M17.2754 17.4906C17.7373 15.9179 17.9885 14.2261 17.9885 12.4639C17.9885 11.6565 17.9358 10.864 17.8342 10.0909C17.935 10.1272 18.0406 10.1493 18.1479 10.1561C18.2914 10.1646 18.4348 10.1391 18.5665 10.0817C18.6824 10.0302 18.7851 9.95295 18.8666 9.85583C18.95 9.75555 19.0113 9.63884 19.0466 9.51329C19.0858 9.37111 19.0984 9.22292 19.0836 9.07618C19.0684 8.92097 19.0282 8.76923 18.9645 8.62683C18.898 8.47589 18.8075 8.33666 18.6965 8.21452C18.5889 8.0953 18.4615 7.99552 18.32 7.91959L18.2869 7.90471C18.1545 7.838 18.0103 7.7979 17.8624 7.78667C17.7232 7.77632 17.5835 7.79804 17.4541 7.85015L17.4488 7.85247C17.4438 7.85511 17.4379 7.85776 17.4309 7.86073L17.4134 7.86834L17.4078 7.87065C17.4044 7.87224 17.4011 7.87385 17.3978 7.87548C16.6019 4.87365 15.0459 2.27814 13.0011 0.414185C13.0318 0.417005 13.0624 0.419943 13.0931 0.422999C15.8764 0.700253 18.4778 1.93172 20.4555 3.90823C20.7817 4.23439 21.0892 4.57881 21.3763 4.93984C21.5 4.93156 21.6238 4.95501 21.7359 5.00796C21.8481 5.0609 21.9448 5.1416 22.0169 5.24239C22.0891 5.34317 22.1343 5.46071 22.1482 5.58384C22.1622 5.70698 22.1444 5.83163 22.0966 5.94598C23.0063 7.37034 23.6077 8.96918 23.8621 10.6397C24.1165 12.3102 24.0182 14.0154 23.5736 15.6457C23.129 17.276 22.3479 18.7953 21.2805 20.1059C20.2131 21.4164 18.8831 22.4893 17.376 23.2555C17.3463 23.4601 17.2635 23.6535 17.1359 23.8163C17.0083 23.9791 16.8402 24.1057 16.6485 24.1835C16.4567 24.2613 16.2479 24.2876 16.0428 24.2598C15.8377 24.2319 15.6435 24.1509 15.4794 24.0249C14.6692 24.2749 13.8382 24.4383 13 24.5146C14.6958 22.9692 16.0554 20.9207 16.9243 18.5547C17.1007 18.6631 17.2964 18.7363 17.5008 18.7702C17.7095 18.8047 17.923 18.7976 18.1289 18.7492C18.3348 18.7008 18.5291 18.612 18.7004 18.4881C18.8718 18.3641 19.0169 18.2075 19.1272 18.0271C19.2376 17.8468 19.3111 17.6464 19.3434 17.4375C19.3758 17.2286 19.3663 17.0153 19.3157 16.8101C19.265 16.6048 19.1741 16.4117 19.0482 16.2418C18.9224 16.0719 18.764 15.9286 18.5824 15.8203C18.516 15.7834 18.443 15.7599 18.3675 15.7512C18.292 15.7425 18.2156 15.7487 18.1425 15.7695C18.0694 15.7904 18.0012 15.8253 17.9417 15.8725C17.8821 15.9197 17.8325 15.9781 17.7955 16.0445C17.7586 16.1108 17.7351 16.1838 17.7264 16.2592C17.7177 16.3346 17.7239 16.411 17.7448 16.484C17.7656 16.557 17.8006 16.6252 17.8478 16.6847C17.895 16.7442 17.9535 16.7938 18.0199 16.8307C18.0889 16.8699 18.1461 16.9271 18.1853 16.9961C18.2257 17.0656 18.2467 17.1448 18.2459 17.2252C18.2444 17.3047 18.2216 17.3823 18.1798 17.45C18.138 17.5177 18.0788 17.5729 18.0084 17.6099C17.9379 17.6468 17.8588 17.6642 17.7794 17.6602C17.6999 17.6561 17.623 17.6308 17.5567 17.5869C17.4722 17.5304 17.3751 17.4976 17.2754 17.4906Z" fill="#F6DF31"/>
</svg>
