<svg width="24" height="25" viewBox="0 0 24 25" fill="none" xmlns="http://www.w3.org/2000/svg">
<path fill-rule="evenodd" clip-rule="evenodd" d="M10.9994 24.4142C9.48834 23.0343 8.24591 21.2504 7.38319 19.1962C7.30423 19.0725 7.23744 18.9411 7.18389 18.8039C7.15832 18.7366 7.13642 18.668 7.11826 18.5983C7.10265 18.5395 7.0899 18.48 7.08006 18.42C6.41428 16.5802 6.04506 14.5492 6.04506 12.4144C6.04506 7.51544 7.98935 3.16309 10.9998 0.414185C8.99502 0.583262 7.0522 1.25603 5.35726 2.38613C5.11223 2.26445 4.83721 2.2168 4.56567 2.24896C4.29413 2.28113 4.03776 2.39174 3.82774 2.56733C3.61772 2.74292 3.4631 2.97593 3.38268 3.23802C3.30227 3.50011 3.29952 3.77998 3.37478 4.04361C3.1766 4.2485 2.98596 4.46064 2.80287 4.68001C1.41652 6.34126 0.502061 8.3464 0.15563 10.4846C-0.190801 12.6229 0.0435943 14.8152 0.834174 16.8312C0.536961 17.009 0.319296 17.2946 0.22624 17.6289C0.133185 17.9632 0.171865 18.3205 0.334274 18.627C0.496682 18.9335 0.770381 19.1656 1.09871 19.2753C1.42704 19.3849 1.78485 19.3638 2.09808 19.2163C2.2897 19.4979 2.49291 19.7704 2.70772 20.0336C2.96206 20.3458 3.23189 20.645 3.5162 20.93C3.77388 21.1882 4.04239 21.4342 4.32173 21.6681C5.86076 22.9519 7.69493 23.8302 9.65799 24.2235C10.1024 24.3125 10.5503 24.376 10.9994 24.4142ZM4.96634 9.2202C4.88789 9.08906 4.7607 8.99456 4.61277 8.95747V8.95812C4.18819 8.85056 3.73839 8.91655 3.36233 9.14158C2.98626 9.36661 2.71474 9.73224 2.60748 10.158C2.50023 10.5838 2.56603 11.0349 2.79041 11.4121C3.01479 11.7892 3.37938 12.0615 3.80396 12.1691C3.9519 12.2068 4.10869 12.1839 4.23985 12.1057C4.37101 12.0274 4.46579 11.9 4.50334 11.7517C4.54089 11.6033 4.51813 11.4461 4.44008 11.3145C4.36202 11.183 4.23506 11.0879 4.08712 11.0503C3.95833 11.0175 3.84781 10.9347 3.77988 10.8202C3.71194 10.7056 3.69216 10.5687 3.72488 10.4396C3.7576 10.3104 3.84015 10.1996 3.95435 10.1314C4.06856 10.0633 4.20507 10.0435 4.33387 10.0763C4.4818 10.1134 4.63837 10.09 4.76913 10.0113C4.89989 9.93263 4.99413 9.80508 5.03111 9.65672C5.0681 9.50836 5.0448 9.35134 4.96634 9.2202Z" fill="#F6DF31"/>
</svg>
