<svg width="24" height="25" viewBox="0 0 24 25" fill="none" xmlns="http://www.w3.org/2000/svg">
<path fill-rule="evenodd" clip-rule="evenodd" d="M11 0.414185C9.01314 0.597541 7.08986 1.26697 5.40829 2.37844C5.16092 2.25667 4.88328 2.20898 4.60916 2.24117C4.33503 2.27337 4.07622 2.38406 3.86419 2.55978C3.65217 2.73551 3.49608 2.96869 3.4149 3.23098C3.33372 3.49328 3.33095 3.77337 3.40692 4.03719C3.20685 4.24225 3.0144 4.45454 2.82957 4.67409C1.43001 6.33661 0.506843 8.34329 0.157113 10.4832C-0.192618 12.6231 0.0440095 14.8171 0.842119 16.8346C0.542075 17.0125 0.322337 17.2984 0.228395 17.6329C0.134453 17.9674 0.173502 18.3251 0.337457 18.6318C0.501413 18.9385 0.777719 19.1708 1.10917 19.2805C1.44063 19.3903 1.80185 19.3692 2.11806 19.2215C2.31151 19.5034 2.51666 19.7761 2.73351 20.0395C2.99027 20.3519 3.26267 20.6513 3.54969 20.9366C3.80982 21.195 4.08089 21.4412 4.36289 21.6752C5.91658 22.96 7.76822 23.839 9.74997 24.2326C10.1642 24.3148 10.5815 24.3753 10.9999 24.4142C10.7797 22.8327 10.6017 21.1889 10.47 19.4945C10.46 19.5168 10.4494 19.5389 10.4382 19.5607C10.3678 19.695 10.2733 19.8153 10.1593 19.9157C10.0451 20.0162 9.91359 20.0954 9.77107 20.1495C9.72239 20.1682 9.67261 20.1839 9.62201 20.1966C9.57019 20.2103 9.51767 20.2213 9.46467 20.2295C9.24345 20.2602 9.01831 20.2471 8.80219 20.191C8.57293 20.1319 8.35503 20.0357 8.15726 19.9061C7.95313 19.7728 7.77043 19.6096 7.61535 19.422C7.46238 19.2381 7.33983 19.0311 7.25231 18.8089C7.2265 18.7415 7.20438 18.6728 7.18606 18.603C7.16761 18.5342 7.15312 18.4644 7.14267 18.3939C7.11813 18.2368 7.1169 18.0769 7.13902 17.9194V17.92C7.16106 17.7679 7.20841 17.6204 7.27914 17.4837C7.34943 17.3493 7.44397 17.2288 7.55804 17.1284C7.67258 17.0271 7.80469 16.9475 7.94792 16.8932C7.99652 16.8747 8.04618 16.8589 8.09664 16.8462C8.15097 16.8323 8.20363 16.8218 8.25365 16.8132C8.47488 16.7828 8.69998 16.7959 8.91614 16.8518C9.14531 16.9108 9.36311 17.007 9.56073 17.1366C9.76504 17.2699 9.94786 17.4333 10.103 17.621C10.2055 17.7448 10.2943 17.8789 10.368 18.021C10.2573 16.2004 10.1995 14.3269 10.1995 12.4144C10.1995 8.17215 10.4837 4.1219 11 0.414185ZM5.01364 9.21776C4.93444 9.08653 4.80605 8.99195 4.6567 8.95483V8.95548C4.22808 8.84784 3.77399 8.91388 3.39435 9.13908C3.0147 9.36428 2.74059 9.7302 2.63231 10.1563C2.52404 10.5825 2.59047 11.0339 2.81699 11.4113C3.04351 11.7888 3.41156 12.0613 3.84019 12.1689C3.98953 12.2066 4.14782 12.1838 4.28023 12.1054C4.41264 12.0271 4.50832 11.8997 4.54623 11.7512C4.58414 11.6027 4.56116 11.4453 4.48237 11.3137C4.40357 11.1821 4.2754 11.0869 4.12605 11.0493C3.99603 11.0164 3.88446 10.9336 3.81588 10.8189C3.7473 10.7043 3.72733 10.5673 3.76036 10.4381C3.79339 10.3088 3.87672 10.1979 3.99201 10.1297C4.10731 10.0615 4.24512 10.0417 4.37514 10.0745C4.52449 10.1116 4.68255 10.0882 4.81456 10.0095C4.94656 9.93074 5.0417 9.80309 5.07903 9.65462C5.11637 9.50614 5.09285 9.349 5.01364 9.21776ZM8.78828 6.78202C8.95932 6.70616 9.11613 6.60193 9.25201 6.47378C9.54877 6.19438 9.76307 5.83967 9.87177 5.44797C9.92186 5.26793 9.94101 5.08078 9.92841 4.8944C9.92067 4.7729 9.89141 4.65373 9.84196 4.54236C9.79973 4.44577 9.73239 4.36211 9.64685 4.29999L9.63957 4.29538L9.61572 4.2822L9.59352 4.26771L9.58591 4.26343C9.48989 4.21711 9.38332 4.19667 9.27686 4.20416C9.15457 4.21276 9.0348 4.24287 8.92309 4.29307C8.75206 4.3688 8.59524 4.47293 8.45935 4.60098C8.16279 4.88053 7.94851 5.23519 7.8396 5.62679C7.78951 5.80694 7.77036 5.99421 7.78296 6.18069C7.79079 6.30213 7.81993 6.42128 7.86908 6.53273C7.91139 6.62936 7.97885 6.71302 8.06451 6.7751L8.0718 6.77971L8.09565 6.79289C8.10161 6.79618 8.1089 6.80112 8.11784 6.80705L8.12546 6.81133C8.22148 6.85765 8.32805 6.87809 8.43451 6.8706C8.55678 6.86212 8.67656 6.83213 8.78828 6.78202Z" fill="#F6DF31"/>
</svg>
