<svg width="25" height="25" viewBox="0 0 25 25" fill="none" xmlns="http://www.w3.org/2000/svg">
<path fill-rule="evenodd" clip-rule="evenodd" d="M12.8079 24.9863C13.8713 24.9508 14.9294 24.7742 15.9539 24.4579C16.1165 24.5829 16.309 24.6632 16.5122 24.6908C16.7155 24.7185 16.9224 24.6924 17.1125 24.6152C17.3026 24.5381 17.4691 24.4125 17.5956 24.2511C17.7221 24.0896 17.8042 23.8979 17.8336 23.6949C19.3273 22.9351 20.6455 21.8711 21.7034 20.5715C22.7613 19.2718 23.5354 17.7651 23.9761 16.1484C24.4168 14.5317 24.5142 12.8406 24.2621 11.184C24.01 9.52736 23.4139 7.94181 22.5123 6.52929C22.5596 6.41589 22.5773 6.29227 22.5634 6.17016C22.5496 6.04805 22.5048 5.93149 22.4333 5.83154C22.3618 5.73159 22.2659 5.65157 22.1548 5.59906C22.0437 5.54655 21.921 5.5233 21.7983 5.53151C21.5138 5.17348 21.2091 4.83192 20.8857 4.50848C18.9256 2.5484 16.3473 1.32717 13.5888 1.05222C13.3283 1.02626 13.0678 1.00888 12.8075 1C11.5657 2.09752 10.4956 3.38492 9.64273 4.81675C9.72794 4.81917 9.81191 4.83963 9.889 4.87703L9.89655 4.8813L9.91852 4.89572L9.94213 4.90884L9.94934 4.91343C10.034 4.97529 10.1007 5.05859 10.1425 5.15476C10.1915 5.26565 10.2204 5.38431 10.2281 5.50528C10.2406 5.69086 10.2216 5.87721 10.172 6.05647C10.0644 6.44648 9.85223 6.79966 9.55844 7.07786C9.42392 7.20545 9.26867 7.30923 9.09933 7.38477C8.98873 7.43466 8.87014 7.46453 8.74909 7.47297C8.6437 7.48042 8.53819 7.46007 8.44313 7.41395L8.43559 7.40969C8.43445 7.40893 8.43335 7.40819 8.43226 7.40747C8.42491 7.40255 8.41876 7.39845 8.41362 7.39559L8.40661 7.3917C7.75499 9.135 7.39874 11.0224 7.39874 12.993C7.39874 14.5781 7.62924 16.1094 8.05854 17.5551C8.12467 17.5145 8.19456 17.4801 8.26736 17.4524C8.31548 17.4339 8.36464 17.4183 8.4146 17.4055C8.46838 17.3918 8.52052 17.3813 8.57004 17.3727C8.78907 17.3424 9.01192 17.3555 9.22592 17.4111C9.45281 17.4699 9.66843 17.5657 9.86408 17.6947C10.0663 17.8275 10.2473 17.9901 10.4009 18.1771C10.5522 18.3607 10.6733 18.5672 10.7597 18.7889C10.7853 18.856 10.8072 18.9244 10.8253 18.9939C10.8435 19.0624 10.8578 19.1319 10.8682 19.2021C10.8921 19.3587 10.8929 19.518 10.8705 19.6749C10.8489 19.826 10.8023 19.9725 10.7328 20.1084C10.6631 20.2421 10.5695 20.3619 10.4567 20.4618C10.3436 20.562 10.2134 20.6408 10.0723 20.6946C10.0241 20.7132 9.97484 20.7289 9.92475 20.7415C9.87344 20.7552 9.82145 20.7662 9.76898 20.7743C9.6537 20.7904 9.53735 20.7944 9.42179 20.7864C10.3079 22.3723 11.4562 23.7918 12.8079 24.9863ZM17.4112 8.99145C17.3722 9.13241 17.3597 9.2794 17.3745 9.42492V9.42427C17.3895 9.57816 17.4293 9.72863 17.4922 9.86988C17.5608 10.0248 17.6548 10.1672 17.7703 10.2912C17.8828 10.4123 18.0161 10.5122 18.1638 10.5863C18.2993 10.6546 18.4472 10.6948 18.5987 10.7044C18.7408 10.7128 18.883 10.6876 19.0135 10.6306C19.1284 10.5795 19.2301 10.5029 19.311 10.4066C19.3936 10.3072 19.4544 10.1914 19.4893 10.0669C19.5282 9.92595 19.5407 9.77899 19.5261 9.63346C19.511 9.47955 19.4711 9.32907 19.408 9.18786C19.342 9.03817 19.2524 8.9001 19.1424 8.77897C19.0357 8.66074 18.9095 8.56179 18.7692 8.48649L18.7364 8.47174C18.6052 8.40558 18.4622 8.36581 18.3157 8.35468C18.1777 8.34441 18.0393 8.36595 17.911 8.41763L17.9057 8.41993C17.9008 8.42255 17.8949 8.42517 17.888 8.42813L17.8707 8.43567L17.8651 8.43796C17.7553 8.49025 17.6585 8.5663 17.5817 8.6606C17.503 8.75813 17.4449 8.87071 17.4112 8.99145ZM17.1311 18.6609C17.1606 18.81 17.2482 18.9414 17.3745 19.026L17.3748 19.0263C17.5525 19.1376 17.7505 19.2126 17.9573 19.2469C18.1641 19.2811 18.3757 19.2741 18.5798 19.2261C18.7839 19.178 18.9764 19.09 19.1463 18.9671C19.3161 18.8442 19.4599 18.6888 19.5693 18.51C19.6787 18.3312 19.7515 18.1324 19.7835 17.9252C19.8156 17.7181 19.8063 17.5066 19.756 17.3031C19.7058 17.0995 19.6157 16.908 19.491 16.7395C19.3662 16.571 19.2093 16.429 19.0293 16.3215C18.9634 16.2849 18.8911 16.2616 18.8163 16.253C18.7415 16.2444 18.6657 16.2505 18.5933 16.2712C18.5209 16.2918 18.4532 16.3265 18.3942 16.3733C18.3352 16.4201 18.286 16.478 18.2494 16.5438C18.2128 16.6096 18.1895 16.682 18.1809 16.7568C18.1723 16.8316 18.1784 16.9073 18.1991 16.9797C18.2197 17.0521 18.2544 17.1198 18.3012 17.1788C18.348 17.2378 18.406 17.287 18.4718 17.3236C18.5402 17.3624 18.5969 17.4191 18.6357 17.4875C18.6758 17.5565 18.6965 17.635 18.6957 17.7147C18.6943 17.7936 18.6717 17.8706 18.6303 17.9377C18.5889 18.0048 18.5302 18.0595 18.4604 18.0962C18.3905 18.1329 18.3122 18.1501 18.2334 18.1461C18.1546 18.1421 18.0784 18.117 18.0126 18.0735C17.8863 17.9888 17.7315 17.9579 17.5824 17.9874C17.4332 18.0168 17.3019 18.1044 17.2172 18.2307C17.1326 18.357 17.1016 18.5117 17.1311 18.6609Z" fill="#F6DF31"/>
</svg>
