<svg width="24" height="25" viewBox="0 0 24 25" fill="none" xmlns="http://www.w3.org/2000/svg">
<path fill-rule="evenodd" clip-rule="evenodd" d="M11.4704 0.417358C9.32396 0.538122 7.23602 1.21965 5.42688 2.40784C5.17866 2.28642 4.90008 2.23887 4.625 2.27097C4.34993 2.30307 4.09023 2.41343 3.87748 2.58864C3.66473 2.76385 3.5081 2.99635 3.42664 3.25787C3.34518 3.51939 3.3424 3.79866 3.41864 4.06171C3.21788 4.26616 3.02477 4.47783 2.8393 4.69673C1.43493 6.35436 0.508586 8.35515 0.157653 10.4887C-0.19328 12.6223 0.0441608 14.8099 0.845015 16.8215C0.543939 16.9989 0.323445 17.2839 0.22918 17.6174C0.134916 17.951 0.174098 18.3076 0.338618 18.6134C0.503137 18.9192 0.780393 19.1508 1.11299 19.2602C1.44558 19.3697 1.80805 19.3486 2.12535 19.2014C2.31946 19.4824 2.52531 19.7543 2.74291 20.017C3.00055 20.3285 3.27389 20.627 3.56189 20.9114C3.82292 21.169 4.09492 21.4145 4.37789 21.6479C5.93693 22.9289 7.79493 23.8053 9.7835 24.1977C10.4812 24.3354 11.1872 24.4119 11.8935 24.4278C15.0371 21.4701 17 17.2716 17 12.6147C17 7.75229 14.86 3.38967 11.4704 0.417358ZM5.03088 9.22704C4.95141 9.09619 4.82257 9.00189 4.67271 8.96488V8.96554C4.24261 8.85821 3.78697 8.92406 3.40602 9.1486C3.02507 9.37313 2.75001 9.73797 2.64137 10.1628C2.53272 10.5877 2.59937 11.0378 2.82667 11.4142C3.05397 11.7905 3.42329 12.0622 3.85339 12.1695C4.00325 12.2071 4.16208 12.1843 4.29495 12.1062C4.42781 12.0281 4.52382 11.9011 4.56186 11.753C4.5999 11.605 4.57685 11.4481 4.49778 11.3168C4.41871 11.1856 4.2901 11.0907 4.14024 11.0532C4.00977 11.0204 3.89781 10.9378 3.829 10.8235C3.76018 10.7092 3.74014 10.5726 3.77329 10.4437C3.80643 10.3149 3.89005 10.2043 4.00574 10.1363C4.12143 10.0683 4.25972 10.0485 4.39019 10.0813C4.54005 10.1183 4.69865 10.0949 4.83111 10.0164C4.96357 9.93793 5.05903 9.81065 5.0965 9.66261C5.13396 9.51457 5.11036 9.35789 5.03088 9.22704ZM7.30417 17.4687C7.2332 17.605 7.18568 17.752 7.16357 17.9037V17.9031C7.14137 18.0601 7.1426 18.2195 7.16723 18.3762C7.17772 18.4465 7.19226 18.5161 7.21077 18.5847C7.22916 18.6543 7.25135 18.7228 7.27725 18.7899C7.36507 19.0115 7.48804 19.2179 7.64153 19.4013C7.79715 19.5883 7.98048 19.7511 8.18531 19.884C8.38376 20.0131 8.6024 20.1091 8.83245 20.168C9.04932 20.2239 9.27523 20.237 9.49722 20.2064C9.5504 20.1983 9.6031 20.1873 9.6551 20.1736C9.70587 20.1609 9.75582 20.1453 9.80467 20.1266C9.94768 20.0727 10.0796 19.9938 10.1942 19.8935C10.3086 19.7934 10.4035 19.6734 10.4741 19.5396C10.5446 19.4035 10.5917 19.2568 10.6137 19.1055C10.6363 18.9484 10.6355 18.7889 10.6114 18.632C10.6008 18.5618 10.5863 18.4921 10.5678 18.4235C10.5495 18.3539 10.5273 18.2854 10.5013 18.2183C10.4138 17.9963 10.2911 17.7895 10.1377 17.6056C9.98207 17.4184 9.79862 17.2556 9.59361 17.1226C9.39531 16.9934 9.17676 16.8974 8.94679 16.8386C8.7299 16.7829 8.50403 16.7698 8.28203 16.8002C8.23184 16.8087 8.17899 16.8192 8.12448 16.833C8.07385 16.8458 8.02402 16.8614 7.97524 16.88C7.83152 16.934 7.69896 17.0135 7.58403 17.1144C7.46956 17.2146 7.3747 17.3346 7.30417 17.4687ZM8.81849 6.79846C8.99012 6.72282 9.14748 6.6189 9.28383 6.49113C9.5816 6.21255 9.79664 5.85888 9.90571 5.46834C9.95598 5.28883 9.97519 5.10222 9.96255 4.91639C9.95479 4.79526 9.92542 4.67643 9.8758 4.56539C9.83343 4.46909 9.76586 4.38567 9.68003 4.32373L9.67271 4.31913L9.64878 4.306L9.62651 4.29155L9.61887 4.28728C9.52252 4.2411 9.41558 4.22072 9.30876 4.22818C9.18605 4.23676 9.06586 4.26678 8.95377 4.31683C8.78215 4.39234 8.62479 4.49616 8.48844 4.62384C8.19085 4.90256 7.97585 5.25618 7.86656 5.64663C7.81629 5.82625 7.79708 6.01297 7.80972 6.19891C7.81757 6.31999 7.84682 6.43878 7.89614 6.54991C7.9386 6.64625 8.00629 6.72967 8.09224 6.79157L8.09955 6.79616L8.12349 6.8093C8.12871 6.81216 8.13494 6.81628 8.14242 6.82121C8.1435 6.82193 8.14462 6.82267 8.14576 6.82342L8.1534 6.82769C8.24975 6.87387 8.35669 6.89425 8.46351 6.88679C8.5862 6.87833 8.70639 6.84843 8.81849 6.79846Z" fill="#F6DF31"/>
</svg>
