<svg width="24" height="25" viewBox="0 0 24 25" fill="none" xmlns="http://www.w3.org/2000/svg">
<path fill-rule="evenodd" clip-rule="evenodd" d="M1.09811 19.5435C1.42626 19.6528 1.78387 19.6318 2.09693 19.4847C2.28844 19.7654 2.49155 20.0369 2.70623 20.2992C2.96043 20.6103 3.23012 20.9084 3.51427 21.1924C3.77181 21.4497 4.04017 21.6948 4.31935 21.9279C5.85755 23.2071 7.69071 24.0823 9.65269 24.4742C11.6147 24.8661 13.6434 24.7622 15.5551 24.172C15.7177 24.297 15.9102 24.3773 16.1135 24.4049C16.3168 24.4325 16.5237 24.4065 16.7138 24.3293C16.9038 24.2522 17.0704 24.1266 17.1969 23.9652C17.3234 23.8037 17.4054 23.6119 17.4349 23.409C18.9286 22.6492 20.2468 21.5852 21.3047 20.2855C22.3625 18.9859 23.1367 17.4792 23.5774 15.8625C24.018 14.2458 24.1154 12.5547 23.8633 10.8981C23.6112 9.24144 23.0152 7.65589 22.1135 6.24337C22.1609 6.12997 22.1785 6.00636 22.1647 5.88424C22.1509 5.76213 22.1061 5.64557 22.0346 5.54562C21.9631 5.44567 21.8672 5.36565 21.7561 5.31314C21.6449 5.26063 21.5222 5.23738 21.3996 5.24559C21.115 4.88756 20.8103 4.546 20.487 4.22256C18.5268 2.26248 15.9486 1.04125 13.19 0.766298C10.4315 0.491349 7.66287 1.17963 5.35432 2.71425C5.10942 2.593 4.83456 2.54551 4.56317 2.57757C4.29177 2.60962 4.03554 2.71984 3.82564 2.8948C3.61573 3.06977 3.4612 3.30195 3.38083 3.56312C3.30046 3.82428 3.29771 4.10316 3.37293 4.36585C3.17486 4.57002 2.98433 4.7814 2.80134 5C1.41575 6.65536 0.501786 8.6534 0.155545 10.7841C-0.190696 12.9147 0.0435704 15.0993 0.833717 17.1081C0.536666 17.2853 0.319121 17.5699 0.226116 17.903C0.133112 18.2361 0.171771 18.5922 0.33409 18.8976C0.49641 19.2029 0.769959 19.4342 1.09811 19.5435ZM12 24.2071C18.3513 24.2071 23.5 19.0584 23.5 12.7071C23.5 6.35582 18.3513 1.20709 12 1.20709C5.64873 1.20709 0.5 6.35582 0.5 12.7071C0.5 19.0584 5.64873 24.2071 12 24.2071Z" fill="#F6DF31"/>
</svg>
