<svg width="24" height="25" viewBox="0 0 24 25" fill="none" xmlns="http://www.w3.org/2000/svg">
<path fill-rule="evenodd" clip-rule="evenodd" d="M4.61024 9.26229C4.75809 9.29925 4.88521 9.39342 4.96362 9.5241C5.04203 9.65477 5.06532 9.81123 5.02835 9.95907C4.99139 10.1069 4.8972 10.234 4.76652 10.3124C4.63583 10.3908 4.47935 10.4141 4.33149 10.3771C4.20277 10.3444 4.06633 10.3642 3.95218 10.4321C3.83804 10.5 3.75554 10.6104 3.72284 10.7391C3.69014 10.8678 3.70991 11.0043 3.7778 11.1184C3.8457 11.2325 3.95616 11.315 4.08488 11.3477C4.23274 11.3852 4.35963 11.4799 4.43764 11.611C4.51565 11.7421 4.5384 11.8988 4.50087 12.0466C4.46334 12.1944 4.36861 12.3213 4.23752 12.3993C4.10644 12.4773 3.94973 12.5001 3.80187 12.4625C3.37752 12.3554 3.01314 12.084 2.78888 11.7082C2.56462 11.3324 2.49885 10.8829 2.60605 10.4586C2.71325 10.0343 2.98462 9.66998 3.36048 9.44575C3.73634 9.22152 4.18589 9.15577 4.61024 9.26295M7.06779 18.1889C7.08961 18.0374 7.13649 17.8905 7.20651 17.7544C7.2761 17.6206 7.36969 17.5006 7.48263 17.4006C7.59603 17.2998 7.72682 17.2205 7.86861 17.1665C7.91674 17.148 7.9659 17.1324 8.01586 17.1196C8.06964 17.1058 8.12178 17.0954 8.1713 17.0868C8.39032 17.0565 8.61318 17.0695 8.82717 17.1252C9.05406 17.1839 9.26969 17.2798 9.46534 17.4088C9.66761 17.5416 9.8486 17.7042 10.0022 17.8911C10.1535 18.0748 10.2746 18.2813 10.3609 18.503C10.3866 18.57 10.4085 18.6385 10.4265 18.7079C10.4448 18.7765 10.4591 18.846 10.4695 18.9161C10.4933 19.0728 10.4941 19.2321 10.4718 19.389C10.4501 19.5401 10.4036 19.6866 10.334 19.8224C10.2644 19.9561 10.1708 20.0759 10.0579 20.1759C9.94488 20.276 9.81467 20.3549 9.67358 20.4087C9.62538 20.4273 9.5761 20.443 9.52601 20.4556C9.4747 20.4693 9.4227 20.4802 9.37024 20.4884C9.15122 20.5189 8.92833 20.5059 8.71436 20.45C8.48739 20.3912 8.27166 20.2954 8.07587 20.1664C7.87378 20.0337 7.6929 19.8712 7.53936 19.6844C7.38792 19.5012 7.2666 19.2952 7.17995 19.0739C7.1544 19.0068 7.1325 18.9384 7.11436 18.8689C7.0961 18.8004 7.08175 18.7309 7.0714 18.6607C7.04711 18.5042 7.04589 18.3451 7.06779 18.1882V18.1889ZM9.1597 6.79194C9.02517 6.91953 8.86992 7.02331 8.70059 7.09885C8.58998 7.14874 8.4714 7.17861 8.35035 7.18705C8.24496 7.1945 8.13945 7.17415 8.04439 7.12803L8.03685 7.12377C8.02799 7.11787 8.02078 7.11295 8.01487 7.10967L7.99126 7.09655L7.98405 7.09196C7.89924 7.03015 7.83246 6.94684 7.79056 6.85063C7.74191 6.73966 7.71305 6.62103 7.7053 6.50011C7.69283 6.31443 7.71179 6.12797 7.76138 5.9486C7.86921 5.55868 8.08134 5.20555 8.37495 4.92721C8.50948 4.79971 8.66473 4.69603 8.83406 4.62062C8.94465 4.57064 9.06323 4.54066 9.1843 4.53209C9.28969 4.52464 9.3952 4.545 9.49026 4.59111L9.4978 4.59538L9.51978 4.6098L9.54339 4.62292L9.5506 4.62751C9.63528 4.68937 9.70195 4.77267 9.74376 4.86884C9.79271 4.97973 9.82169 5.09839 9.82935 5.21936C9.84182 5.40494 9.82286 5.59129 9.77327 5.77055C9.66566 6.16056 9.45349 6.51374 9.1597 6.79194ZM16.9757 9.139C16.961 8.99348 16.9734 8.84649 17.0125 8.70553C17.0462 8.58479 17.1042 8.47221 17.183 8.37468C17.2598 8.28038 17.3565 8.20433 17.4663 8.15204L17.4719 8.14975L17.4893 8.14221C17.4962 8.13926 17.5021 8.13663 17.507 8.13401L17.5122 8.13171C17.6405 8.08003 17.779 8.05849 17.9169 8.06876C18.0635 8.07989 18.2064 8.11966 18.3377 8.18582L18.3705 8.20057C18.5108 8.27587 18.637 8.37482 18.7436 8.49305C18.8536 8.61418 18.9433 8.75224 19.0093 8.90194C19.0724 9.04315 19.1122 9.19363 19.1273 9.34754C19.1419 9.49307 19.1295 9.64003 19.0906 9.78102C19.0557 9.90553 18.9949 10.0213 18.9122 10.1207C18.8314 10.217 18.7297 10.2936 18.6148 10.3447C18.4842 10.4016 18.3421 10.4269 18.1999 10.4184C18.0485 10.4089 17.9006 10.3687 17.7651 10.3004C17.6174 10.2263 17.4841 10.1264 17.3716 10.0053C17.256 9.88133 17.162 9.73892 17.0935 9.58396C17.0305 9.44271 16.9908 9.29224 16.9757 9.13835V9.139ZM16.9757 18.7401C16.8494 18.6555 16.7619 18.5241 16.7324 18.375C16.7029 18.2258 16.7339 18.0711 16.8185 17.9448C16.9031 17.8184 17.0345 17.7309 17.1836 17.7014C17.3328 17.672 17.4876 17.7029 17.6139 17.7875C17.6796 17.8311 17.7559 17.8562 17.8346 17.8602C17.9134 17.8642 17.9918 17.847 18.0616 17.8103C18.1314 17.7736 18.1901 17.7189 18.2315 17.6518C18.2729 17.5847 18.2955 17.5077 18.297 17.4288C18.2978 17.3491 18.2771 17.2706 18.237 17.2016C18.1981 17.1332 18.1415 17.0765 18.073 17.0376C18.0072 17.001 17.9493 16.9518 17.9025 16.8928C17.8557 16.8339 17.821 16.7662 17.8003 16.6938C17.7797 16.6214 17.7735 16.5457 17.7821 16.4709C17.7908 16.3961 17.8141 16.3237 17.8507 16.2579C17.8873 16.1921 17.9365 16.1342 17.9955 16.0874C18.0545 16.0406 18.1221 16.0059 18.1945 15.9853C18.267 15.9646 18.3427 15.9584 18.4175 15.9671C18.4923 15.9757 18.5647 15.999 18.6305 16.0356C18.8105 16.143 18.9675 16.2851 19.0922 16.4536C19.217 16.6221 19.3071 16.8136 19.3573 17.0172C19.4075 17.2207 19.4169 17.4322 19.3848 17.6393C19.3527 17.8465 19.2799 18.0452 19.1705 18.2241C19.0611 18.4029 18.9174 18.5583 18.7475 18.6812C18.5777 18.8041 18.3851 18.8921 18.1811 18.9401C17.977 18.9882 17.7654 18.9952 17.5586 18.9609C17.3517 18.9267 17.1537 18.8517 16.9761 18.7404L16.9757 18.7401ZM2.09693 19.4847C1.78387 19.6318 1.42626 19.6528 1.09811 19.5435C0.769959 19.4342 0.49641 19.2029 0.33409 18.8976C0.171771 18.5922 0.133112 18.2361 0.226116 17.903C0.319121 17.5699 0.536666 17.2853 0.833717 17.1081C0.0435704 15.0993 -0.190696 12.9147 0.155545 10.7841C0.501786 8.6534 1.41575 6.65536 2.80134 5C2.98433 4.7814 3.17486 4.57002 3.37293 4.36585C3.29771 4.10316 3.30046 3.82428 3.38083 3.56312C3.4612 3.30195 3.61573 3.06977 3.82564 2.8948C4.03554 2.71984 4.29177 2.60962 4.56317 2.57757C4.83456 2.54551 5.10942 2.593 5.35432 2.71425C7.66287 1.17963 10.4315 0.491349 13.19 0.766298C15.9486 1.04125 18.5268 2.26248 20.487 4.22256C20.8103 4.546 21.115 4.88756 21.3996 5.24559C21.5222 5.23738 21.6449 5.26063 21.7561 5.31314C21.8672 5.36565 21.9631 5.44567 22.0346 5.54562C22.1061 5.64557 22.1509 5.76213 22.1647 5.88424C22.1785 6.00636 22.1609 6.12997 22.1135 6.24337C23.0152 7.65589 23.6112 9.24144 23.8633 10.8981C24.1154 12.5547 24.018 14.2458 23.5774 15.8625C23.1367 17.4792 22.3625 18.9859 21.3047 20.2855C20.2468 21.5852 18.9286 22.6492 17.4349 23.409C17.4054 23.6119 17.3234 23.8037 17.1969 23.9652C17.0704 24.1266 16.9038 24.2522 16.7138 24.3293C16.5237 24.4065 16.3168 24.4325 16.1135 24.4049C15.9102 24.3773 15.7177 24.297 15.5551 24.172C13.6434 24.7622 11.6147 24.8661 9.65269 24.4742C7.69071 24.0823 5.85755 23.2071 4.31935 21.9279C4.04017 21.6948 3.77181 21.4497 3.51427 21.1924C3.23012 20.9084 2.96043 20.6103 2.70623 20.2992C2.49155 20.0369 2.28844 19.7654 2.09693 19.4847Z" fill="#F6DF31"/>
</svg>
