<svg width="24" height="25" viewBox="0 0 24 25" fill="none" xmlns="http://www.w3.org/2000/svg">
<path fill-rule="evenodd" clip-rule="evenodd" d="M10.9023 24.3934C11.4161 20.6933 11.699 16.6499 11.699 12.4142C11.699 8.17834 11.4161 4.13473 10.9022 0.434517C11.5287 0.398004 12.1602 0.410495 12.7912 0.473391C15.5498 0.74834 18.128 1.96957 20.0882 3.92965C20.4115 4.25309 20.7162 4.59466 21.0008 4.95268C21.1234 4.94447 21.2461 4.96773 21.3573 5.02023C21.4684 5.07274 21.5643 5.15277 21.6358 5.25271C21.7073 5.35266 21.7521 5.46922 21.7659 5.59133C21.7797 5.71345 21.7621 5.83707 21.7147 5.95046C22.6164 7.36298 23.2124 8.94853 23.4645 10.6052C23.7166 12.2618 23.6192 13.9528 23.1786 15.5696C22.7379 17.1863 21.9637 18.693 20.9059 19.9926C19.848 21.2923 18.5298 22.3562 17.0361 23.116C17.0066 23.319 16.9246 23.5108 16.7981 23.6722C16.6716 23.8337 16.505 23.9593 16.315 24.0364C16.1249 24.1136 15.918 24.1396 15.7147 24.112C15.5114 24.0844 15.3189 24.0041 15.1563 23.8791C13.7763 24.3051 12.3352 24.4778 10.9023 24.3934ZM16.6137 8.41262C16.5746 8.55358 16.5622 8.70058 16.5769 8.8461V8.84544C16.592 8.99934 16.6317 9.1498 16.6947 9.29105C16.7632 9.44601 16.8572 9.58842 16.9728 9.71239C17.0853 9.83345 17.2186 9.93339 17.3663 10.0075C17.5018 10.0758 17.6497 10.1159 17.8011 10.1255C17.9433 10.134 18.0854 10.1087 18.216 10.0518C18.3309 10.0007 18.4326 9.92412 18.5134 9.82781C18.5961 9.72837 18.6569 9.61262 18.6918 9.48811C18.7307 9.34712 18.7431 9.20016 18.7285 9.05464C18.7134 8.90072 18.6736 8.75025 18.6105 8.60903C18.5445 8.45934 18.4548 8.32127 18.3449 8.20015C18.2382 8.08191 18.112 7.98296 17.9717 7.90766L17.9389 7.89291C17.8076 7.82676 17.6647 7.78699 17.5181 7.77585C17.3802 7.76559 17.2417 7.78712 17.1134 7.83881L17.1082 7.8411C17.1033 7.84372 17.0974 7.84635 17.0905 7.8493L17.0731 7.85684L17.0675 7.85913C16.9577 7.91142 16.861 7.98747 16.7842 8.08178C16.7054 8.1793 16.6474 8.29188 16.6137 8.41262ZM16.3336 18.0821C16.3631 18.2312 16.4506 18.3625 16.5769 18.4472L16.5773 18.4475C16.7549 18.5588 16.9529 18.6337 17.1598 18.668C17.3666 18.7023 17.5782 18.6952 17.7823 18.6472C17.9864 18.5992 18.1789 18.5112 18.3487 18.3883C18.5186 18.2654 18.6623 18.11 18.7717 17.9312C18.8811 17.7523 18.954 17.5536 18.986 17.3464C19.0181 17.1392 19.0087 16.9278 18.9585 16.7243C18.9083 16.5207 18.8182 16.3292 18.6934 16.1607C18.5687 15.9922 18.4117 15.8501 18.2317 15.7427C18.1659 15.7061 18.0935 15.6828 18.0187 15.6742C17.9439 15.6655 17.8682 15.6717 17.7957 15.6924C17.7233 15.713 17.6557 15.7477 17.5967 15.7945C17.5377 15.8413 17.4885 15.8992 17.4519 15.965C17.4153 16.0308 17.392 16.1032 17.3834 16.178C17.3747 16.2527 17.3809 16.3285 17.4015 16.4009C17.4222 16.4733 17.4569 16.5409 17.5037 16.5999C17.5505 16.6589 17.6084 16.7081 17.6742 16.7447C17.7427 16.7836 17.7993 16.8403 17.8382 16.9087C17.8783 16.9777 17.899 17.0562 17.8982 17.1359C17.8967 17.2148 17.8741 17.2918 17.8327 17.3589C17.7913 17.426 17.7326 17.4807 17.6628 17.5174C17.593 17.554 17.5146 17.5713 17.4358 17.5673C17.3571 17.5633 17.2809 17.5382 17.2151 17.4946C17.0888 17.41 16.934 17.379 16.7848 17.4085C16.6357 17.438 16.5043 17.5255 16.4197 17.6519C16.3351 17.7782 16.3041 17.9329 16.3336 18.0821Z" fill="#F6DF31"/>
</svg>
