<svg width="40" height="41" viewBox="0 0 40 41" fill="none" xmlns="http://www.w3.org/2000/svg">
<path fill-rule="evenodd" clip-rule="evenodd" d="M11.0454 10.0651C13.4485 7.56739 16.7078 6.16418 20.1063 6.16418C23.5048 6.16418 26.7641 7.56739 29.1672 10.0651C31.5663 12.5588 32.9159 15.9394 32.9203 19.4655C32.9495 20.9478 32.5641 22.3583 31.9272 23.661C33.9497 23.5374 35.9617 23.375 38.3203 23.0544C39.1345 22.9437 39.8808 23.54 39.9873 24.3862C40.0938 25.2324 39.5201 26.0081 38.7059 26.1188C35.2997 26.5818 32.5802 26.7269 29.6828 26.8816C29.4904 26.8918 29.2972 26.9021 29.103 26.9126C28.51 26.9445 27.9556 26.6066 27.6929 26.0531C27.4302 25.4996 27.5095 24.8368 27.8947 24.3671C29.2598 22.7023 29.9809 21.0479 29.9473 19.5181C29.947 19.5063 29.9469 19.4945 29.9469 19.4827C29.9469 16.7701 28.9101 14.1685 27.0646 12.2504C25.2192 10.3323 22.7162 9.25468 20.1063 9.25468C17.4964 9.25468 14.9934 10.3323 13.1479 12.2504C11.3025 14.1685 10.2657 16.7701 10.2657 19.4827V19.4906H10.2657C10.2569 21.2817 10.7141 23.0418 11.589 24.5849C11.8562 25.0561 11.8638 25.6389 11.6091 26.1175C11.3543 26.5961 10.8751 26.899 10.3491 26.9141C6.98867 27.0103 5.10658 27.1998 1.67899 27.6641C0.864785 27.7744 0.118733 27.1777 0.0126312 26.3315C-0.0934704 25.4852 0.480558 24.7098 1.29476 24.5995C3.9719 24.2369 5.7636 24.0341 8.01949 23.9141C7.53339 22.4965 7.28529 20.9961 7.2923 19.4788C7.2933 15.9479 8.64323 12.5619 11.0454 10.0651ZM14.0168 34.8305C10.842 35.1745 7.42621 35.5447 3.38255 35.9021C2.56442 35.9744 1.84479 35.3437 1.77521 34.4934C1.70563 33.643 2.31246 32.8951 3.13059 32.8227C7.06908 32.4746 10.4366 32.1098 13.5921 31.768C21.3892 30.9233 27.8923 30.2188 38.5177 30.2525C39.3387 30.2551 40.0023 30.949 39.9998 31.8024C39.9973 32.6558 39.3297 33.3456 38.5086 33.343C28.0502 33.3098 21.7484 33.9927 14.0168 34.8305Z" fill="url(#paint0_linear_274_6167)"/>
<defs>
<linearGradient id="paint0_linear_274_6167" x1="20" y1="6.16418" x2="20" y2="35.9078" gradientUnits="userSpaceOnUse">
<stop offset="0.0204082" stop-color="#F1BA5B"/>
<stop offset="1" stop-color="#F4930B"/>
</linearGradient>
</defs>
</svg>
