<svg width="40" height="41" viewBox="0 0 40 41" fill="none" xmlns="http://www.w3.org/2000/svg">
<path fill-rule="evenodd" clip-rule="evenodd" d="M4.03751 8.41476C4.06494 9.16275 4.31286 9.58473 4.53612 9.76546C5.18363 10.2896 5.27714 11.2315 4.74498 11.8693C4.21281 12.507 3.2565 12.5991 2.60899 12.075C1.49336 11.1719 1.05114 9.79868 1.00435 8.52265C0.956782 7.22545 1.30041 5.83129 1.98972 4.6062C2.6832 3.37369 3.76279 2.25089 5.23556 1.59278C6.72695 0.926351 8.50634 0.788642 10.4799 1.35003C11.7275 1.70491 12.7516 2.56551 13.5876 3.58822C14.4325 4.62166 15.1798 5.93574 15.8473 7.40232C17.1832 10.337 18.2984 14.1048 19.2196 18.031C20.1098 21.8247 20.833 25.8297 21.4003 29.4837C22.064 25.9363 22.8513 22.1859 23.8031 18.7384C24.7685 15.242 25.9292 11.9549 27.3554 9.46502C28.734 7.05819 30.6162 4.95336 33.2039 4.68954C35.4565 4.45989 37.2295 5.19082 38.4062 6.52138C39.5281 7.78997 39.981 9.45588 39.9994 10.9537C40.0176 12.4295 39.6158 14.0125 38.689 15.114C38.2092 15.6843 37.5492 16.166 36.7094 16.3511C35.8595 16.5384 34.9945 16.3844 34.1861 15.9768C33.4401 15.6006 33.1449 14.6999 33.5269 13.9651C33.9089 13.2303 34.8233 12.9396 35.5693 13.3158C35.8665 13.4657 36.0087 13.4422 36.0467 13.4338C36.0947 13.4232 36.2033 13.3832 36.352 13.2065C36.6822 12.8141 36.977 12.0023 36.9645 10.9899C36.9523 9.9996 36.6473 9.08392 36.1176 8.48488C35.6426 7.94781 34.87 7.52506 33.5164 7.66307C32.4979 7.7669 31.2879 8.6834 29.9989 10.9339C28.7574 13.1013 27.6749 16.1076 26.7319 19.5229C25.1531 25.2411 24.0384 31.8192 23.1676 36.9585C22.9994 37.951 22.8403 38.8898 22.6887 39.7585C22.5605 40.4935 21.9018 41.0229 21.1449 40.9992C20.3881 40.9756 19.7648 40.4061 19.6842 39.6645C19.1806 35.0351 18.0676 26.3978 16.2624 18.7041C15.3581 14.8496 14.2952 11.2996 13.0778 8.62529C12.4688 7.28735 11.8457 6.22407 11.2236 5.46302C10.5927 4.69124 10.0532 4.34023 9.63779 4.22207C8.28545 3.8374 7.25636 3.97247 6.48955 4.31512C5.70412 4.66609 5.07579 5.28865 4.64446 6.05525C4.20895 6.82926 4.01086 7.68795 4.03751 8.41476Z" fill="url(#paint0_linear_274_6169)"/>
<defs>
<linearGradient id="paint0_linear_274_6169" x1="20.5" y1="1" x2="20.5" y2="41" gradientUnits="userSpaceOnUse">
<stop offset="0.0204082" stop-color="#F1BA5B"/>
<stop offset="1" stop-color="#F4930B"/>
</linearGradient>
</defs>
</svg>
