<svg width="41" height="41" viewBox="0 0 41 41" fill="none" xmlns="http://www.w3.org/2000/svg">
<path fill-rule="evenodd" clip-rule="evenodd" d="M15.9603 6.03403C24.3818 6.13245 29.7422 6.95756 36.8002 9.43661C37.5825 9.71137 38.4303 9.27295 38.6938 8.45736C38.9574 7.64177 38.5369 6.75787 37.7546 6.48311C28.5851 3.26245 22.0734 2.71859 9.45495 2.95588C7.176 2.95978 4.9912 3.90532 3.37947 5.58569C1.7644 7.26954 0.857063 9.55333 0.857063 11.9347C0.857063 14.316 1.7644 16.5998 3.37947 18.2836C5.15938 20.1393 7.5037 20.4018 9.46908 20.4018C11.4345 20.4018 13.7788 20.1393 15.5587 18.2836C17.1738 16.5998 18.0811 14.316 18.0811 11.9347C18.0811 9.75853 17.3234 7.66386 15.9603 6.03403ZM9.46908 6.07247C7.97784 6.07247 6.54768 6.69009 5.49322 7.78946C4.43875 8.88884 3.84636 10.3799 3.84636 11.9347C3.84636 13.4894 4.43875 14.9805 5.49322 16.0798C6.38284 17.0073 7.65918 17.2852 9.46908 17.2852C11.279 17.2852 12.5553 17.0073 13.4449 16.0798C14.4994 14.9805 15.0918 13.4894 15.0918 11.9347C15.0918 10.3799 14.4994 8.88884 13.4449 7.78946C12.3905 6.69009 10.9603 6.07247 9.46908 6.07247ZM28.7984 20.7435C29.7124 20.4778 30.6642 20.4561 31.6026 20.4561C32.797 20.4561 34.0821 20.7941 35.2281 21.2979C36.3753 21.8022 37.4987 22.5236 38.3343 23.3949C39.9494 25.0787 40.8567 27.3625 40.8567 29.7438C40.8567 32.1251 39.9494 34.4089 38.3343 36.0928C36.726 37.7695 34.5472 38.7146 32.2736 38.7225C23.8688 39.0453 18.0182 38.3892 13.3444 37.2118C9.05458 36.1311 5.80197 34.6193 2.5989 33.1305C2.3143 32.9983 2.03009 32.8662 1.74558 32.7346C0.991034 32.3856 0.650727 31.4649 0.985483 30.6782C1.32024 29.8915 2.20329 29.5367 2.95784 29.8857C3.23852 30.0156 3.51698 30.1449 3.79398 30.2736C7.01151 31.7681 10.0321 33.1711 14.0465 34.1824C17.1585 34.9664 20.8956 35.5198 25.7765 35.6556C25.0778 34.7658 24.5809 33.645 24.2476 32.5761C23.8505 31.3023 23.6327 29.9312 23.6327 28.7655C23.6327 26.3841 24.54 24.1004 26.1551 22.4165C26.9807 21.5557 27.8255 21.0264 28.7984 20.7435ZM29.6014 23.7456C29.1846 23.8668 28.7779 24.0895 28.2688 24.6203C27.2143 25.7196 26.6219 27.2107 26.6219 28.7655C26.6219 29.5677 26.779 30.6135 27.0905 31.6126C27.4086 32.6327 27.8355 33.4373 28.2688 33.889C29.3233 34.9884 30.7534 35.606 32.2447 35.606C33.7359 35.606 35.1661 34.9884 36.2205 33.889C37.275 32.7896 37.8674 31.2986 37.8674 29.7438C37.8674 28.1891 37.275 26.698 36.2205 25.5986C35.7214 25.0782 34.9512 24.5585 34.0666 24.1696C33.1807 23.7801 32.2959 23.5727 31.6026 23.5727C30.6533 23.5727 30.0772 23.6072 29.6014 23.7456Z" fill="url(#paint0_linear_274_6159)"/>
<defs>
<linearGradient id="paint0_linear_274_6159" x1="20.8567" y1="2.9071" x2="20.8567" y2="38.8045" gradientUnits="userSpaceOnUse">
<stop offset="0.0204082" stop-color="#F1BA5B"/>
<stop offset="1" stop-color="#F4930B"/>
</linearGradient>
</defs>
</svg>
