<svg width="40" height="41" viewBox="0 0 40 41" fill="none" xmlns="http://www.w3.org/2000/svg">
<path fill-rule="evenodd" clip-rule="evenodd" d="M23.6926 29.8778C23.1477 30.891 22.8548 32.0332 22.8548 33.2058C22.8548 35.062 23.5887 36.8423 24.895 38.1549C26.2013 39.4674 27.973 40.2048 29.8203 40.2048C31.6677 40.2048 33.4394 39.4674 34.7457 38.1549C36.0519 36.8423 36.7858 35.062 36.7858 33.2058C36.7858 31.3495 36.0519 29.5693 34.7457 28.2567C33.4415 26.9463 31.6734 26.2091 29.8293 26.2067C22.1352 26.1175 17.3345 29.1839 13.3908 32.0228C12.7405 32.4908 12.591 33.3999 13.0568 34.0533C13.5227 34.7066 14.4274 34.8568 15.0776 34.3888C17.5672 32.5967 20.2299 30.8429 23.6926 29.8778ZM29.8203 29.1172C28.7412 29.1172 27.7062 29.548 26.9431 30.3147C26.1801 31.0815 25.7514 32.1214 25.7514 33.2058C25.7514 34.2901 26.1801 35.3301 26.9431 36.0968C27.7062 36.8636 28.7412 37.2943 29.8203 37.2943C30.8995 37.2943 31.9344 36.8636 32.6975 36.0968C33.4606 35.3301 33.8893 34.2901 33.8893 33.2058C33.8893 32.1214 33.4606 31.0815 32.6975 30.3147C31.9344 29.548 30.8995 29.1172 29.8203 29.1172Z" fill="url(#paint0_linear_274_6163)"/>
<path fill-rule="evenodd" clip-rule="evenodd" d="M12.83 2.94323C16.5637 0.0851302 21.5709 -1.05899 24.9659 2.09887C25.8868 2.95537 26.485 4.1673 26.8861 5.46671C27.2917 6.78075 27.5324 8.30452 27.6615 9.916C27.9198 13.1391 27.7458 16.9051 27.4116 20.4532C27.0763 24.0129 26.5743 27.4091 26.1571 29.9115C25.9483 31.1639 25.7603 32.1955 25.6241 32.9153C25.5561 33.2753 25.8506 33.8852 25.8123 34.0783C25.7932 34.1748 25.7783 34.2491 25.768 34.2996L25.7562 34.3576L25.7531 34.3729L25.752 34.3783C25.752 34.3783 25.7519 34.3789 24.3759 34.0737L25.752 34.3783C25.5894 35.166 24.8414 35.6686 24.0815 35.5C23.3216 35.3314 22.8374 34.5562 23 33.7685L23.0033 33.7526L23.0139 33.7003C23.0234 33.6536 22.8442 33.5217 22.8625 33.4292C22.8625 33.1722 22.7962 32.7048 22.8625 32.3541C22.9952 31.6526 23.1793 30.6427 23.3841 29.4147C23.7939 26.956 24.2844 23.635 24.6107 20.1697C24.9382 16.6929 25.0949 13.1262 24.857 10.1575C24.7381 8.67309 24.5239 7.38616 24.2058 6.35576C23.8832 5.31074 23.489 4.6445 23.0865 4.27018C21.1885 2.50475 17.8201 2.74978 14.5017 5.28998C11.2822 7.75438 8.68233 12.0462 8.68233 17.0761C8.68233 17.8817 8.05236 18.5347 7.27525 18.5347C6.49814 18.5347 5.86816 17.8817 5.86816 17.0761C5.86816 11.6558 5.11614 8.36676 4.42022 6.48495C4.07262 5.54501 3.73836 4.95414 3.5164 4.62069C3.40521 4.45367 3.32131 4.34987 3.2766 4.29806C3.25965 4.27841 3.24823 4.26613 3.24299 4.26061C2.68144 3.72843 2.62901 2.82601 3.13108 2.22744C3.64099 1.61954 4.52975 1.55524 5.11617 2.08382L4.1929 3.18453C5.11617 2.08382 5.11826 2.08571 5.11826 2.08571L5.12042 2.08766L5.12493 2.09178L5.13476 2.10085L5.15756 2.1224C5.17412 2.13829 5.19339 2.15728 5.21516 2.17952C5.25871 2.22401 5.3122 2.28144 5.37409 2.35316C5.49795 2.49671 5.65485 2.69678 5.83264 2.96387C6.18862 3.49864 6.62494 4.29693 7.04792 5.44072C7.37417 6.32292 7.69205 7.40937 7.95943 8.73831C9.21679 6.37218 10.9376 4.39179 12.83 2.94323Z" fill="url(#paint1_linear_274_6163)"/>
<defs>
<linearGradient id="paint0_linear_274_6163" x1="24.7858" y1="26.2048" x2="24.7858" y2="40.2048" gradientUnits="userSpaceOnUse">
<stop offset="0.0204082" stop-color="#F1BA5B"/>
<stop offset="1" stop-color="#F4930B"/>
</linearGradient>
<linearGradient id="paint1_linear_274_6163" x1="15.2858" y1="0.204834" x2="15.2858" y2="35.5326" gradientUnits="userSpaceOnUse">
<stop offset="0.0204082" stop-color="#F1BA5B"/>
<stop offset="1" stop-color="#F4930B"/>
</linearGradient>
</defs>
</svg>
