<svg width="40" height="42" viewBox="0 0 40 42" fill="none" xmlns="http://www.w3.org/2000/svg">
<path fill-rule="evenodd" clip-rule="evenodd" d="M0.568722 1.3657C1.21669 0.8412 2.15656 0.954734 2.66798 1.61928C4.71637 4.28102 7.34873 6.40901 10.3507 7.83C13.3527 9.25098 16.6395 9.92478 19.9435 9.79655C19.9811 9.79509 20.0189 9.79509 20.0565 9.79655C23.3605 9.92478 26.6473 9.25098 29.6493 7.83C32.6513 6.40901 35.2836 4.28102 37.332 1.61928C37.8434 0.954734 38.7833 0.8412 39.4313 1.3657C40.0792 1.89019 40.19 2.8541 39.6785 3.51865C37.3385 6.55935 34.3314 8.99031 30.902 10.6136C30.3828 10.8594 29.8562 11.0855 29.3231 11.2919C29.3241 11.3377 29.3232 11.3839 29.3201 11.4305C29.2728 12.157 29.2274 12.838 29.1842 13.4856C28.7902 19.3949 28.582 22.5168 28.8167 31.9816C29.1975 32.1388 29.5753 32.306 29.9498 32.4833C32.587 33.7316 33.6422 34.3375 36.2709 35.8468C36.9116 36.2147 37.6457 36.6362 38.5191 37.1338C39.2407 37.5449 39.5006 38.4781 39.0998 39.2182C38.6989 39.9583 37.7889 40.2249 37.0673 39.8138C36.172 39.3036 35.4264 38.8756 34.7819 38.5056C32.1788 37.0112 31.2231 36.4626 28.6971 35.2669C22.8913 32.5187 16.1659 32.5126 10.3507 35.2652C8.81223 35.9935 7.77989 36.6246 6.88474 37.3761C5.98268 38.1333 5.16305 39.0598 4.09111 40.4527C3.5797 41.1173 2.63983 41.2308 1.99186 40.7063C1.34389 40.1818 1.23318 39.2179 1.7446 38.5534C2.86687 37.0951 3.84265 35.9679 4.99137 35.0036C6.14701 34.0336 7.42083 33.2755 9.09803 32.4816C9.99916 32.0551 10.9194 31.6868 11.8536 31.3768C11.7726 30.2653 11.6937 29.2508 11.6196 28.2988C11.1932 22.8184 10.9282 19.413 11.3724 11.5488C10.601 11.2776 9.84189 10.9657 9.09803 10.6136C5.66863 8.99031 2.66149 6.55935 0.321462 3.51865C-0.189952 2.8541 -0.0792495 1.89019 0.568722 1.3657ZM14.3211 12.3742C13.9392 19.5603 14.1877 22.757 14.5983 28.0372C14.6605 28.8369 14.7264 29.6844 14.7943 30.6008C18.4376 29.8795 22.2034 30.0008 25.8025 30.9618C25.6073 22.1978 25.8204 19.0013 26.2024 13.2689C26.2247 12.9355 26.2474 12.5935 26.2708 12.2414C24.223 12.7286 22.1148 12.9392 20 12.8623C18.0884 12.9318 16.1822 12.7664 14.3211 12.3742Z" fill="url(#paint0_linear_274_6162)"/>
<defs>
<linearGradient id="paint0_linear_274_6162" x1="20" y1="1.03601" x2="20" y2="41.036" gradientUnits="userSpaceOnUse">
<stop offset="0.0204082" stop-color="#F1BA5B"/>
<stop offset="1" stop-color="#F4930B"/>
</linearGradient>
</defs>
</svg>
