<svg width="42" height="41" viewBox="0 0 42 41" fill="none" xmlns="http://www.w3.org/2000/svg">
<path fill-rule="evenodd" clip-rule="evenodd" d="M3.04159 28.4316C4.39453 27.0786 6.22951 26.3185 8.14286 26.3185C10.0562 26.3185 11.8912 27.0786 13.2441 28.4316C14.5971 29.7845 15.3571 31.6195 15.3571 33.5328C15.3571 35.4462 14.5971 37.2812 13.2441 38.6341C11.8912 39.987 10.0562 40.7471 8.14286 40.7471C6.22951 40.7471 4.39453 39.987 3.04159 38.6341C1.68865 37.2812 0.928574 35.4462 0.928574 33.5328C0.928574 31.6195 1.68865 29.7845 3.04159 28.4316ZM8.14286 29.3185C7.02516 29.3185 5.95324 29.7625 5.16291 30.5529C4.37258 31.3432 3.92857 32.4151 3.92857 33.5328C3.92857 34.6505 4.37258 35.7224 5.16291 36.5128C5.95324 37.3031 7.02516 37.7471 8.14286 37.7471C9.26056 37.7471 10.3325 37.3031 11.1228 36.5128C11.9131 35.7224 12.3571 34.6505 12.3571 33.5328C12.3571 32.4151 11.9131 31.3432 11.1228 30.5529C10.3325 29.7625 9.26056 29.3185 8.14286 29.3185Z" fill="url(#paint0_linear_274_6160)"/>
<path fill-rule="evenodd" clip-rule="evenodd" d="M15.307 3.5541C17.1958 1.66534 19.7575 0.604248 22.4286 0.604248C25.0997 0.604248 27.6614 1.66534 29.5501 3.5541C31.9801 5.98402 32.7923 8.99413 32.8732 12.0865C32.9508 15.0554 32.3553 18.2526 31.794 21.2664C31.7804 21.3391 31.7669 21.4117 31.7534 21.4842C31.166 24.6402 30.631 27.5999 30.7296 30.2854C30.8262 32.9184 31.5289 35.1442 33.3159 36.9312C33.8383 37.4536 34.5469 37.7471 35.2857 37.7471C36.0245 37.7471 36.7331 37.4536 37.2555 36.9312C37.7779 36.4088 38.0714 35.7002 38.0714 34.9614C38.0714 34.133 38.743 33.4614 39.5714 33.4614C40.3999 33.4614 41.0714 34.133 41.0714 34.9614C41.0714 36.4959 40.4619 37.9675 39.3768 39.0525C38.2918 40.1375 36.8202 40.7471 35.2857 40.7471C33.7513 40.7471 32.2796 40.1375 31.1946 39.0525C28.7129 36.5708 27.8465 33.5261 27.7316 30.3954C27.6187 27.3174 28.2298 24.0202 28.8041 20.9352L28.8119 20.893C29.3979 17.745 29.9435 14.8139 29.8742 12.165C29.806 9.55614 29.1428 7.38937 27.4288 5.67542C26.1027 4.34927 24.304 3.60425 22.4286 3.60425C20.5531 3.60425 18.7545 4.34927 17.4283 5.67542C15.8214 7.28232 15.1758 9.24643 15.0681 11.5958C14.9578 14.004 15.4162 16.6802 15.9369 19.6302C15.9579 19.7494 15.9791 19.869 16.0003 19.989C16.9893 25.5791 18.1596 32.1945 14.2131 37.6209C13.7258 38.2909 12.7877 38.439 12.1177 37.9518C11.4478 37.4645 11.2996 36.5264 11.7869 35.8564C14.9366 31.5256 14.0389 26.1365 12.9826 20.1517C12.4752 17.2773 11.943 14.2601 12.0713 11.4585C12.2023 8.59826 13.0246 5.83648 15.307 3.5541Z" fill="url(#paint1_linear_274_6160)"/>
<defs>
<linearGradient id="paint0_linear_274_6160" x1="8.14286" y1="26.3185" x2="8.14286" y2="40.7471" gradientUnits="userSpaceOnUse">
<stop offset="0.0204082" stop-color="#F1BA5B"/>
<stop offset="1" stop-color="#F4930B"/>
</linearGradient>
<linearGradient id="paint1_linear_274_6160" x1="26.2857" y1="0.604248" x2="26.2857" y2="40.7471" gradientUnits="userSpaceOnUse">
<stop offset="0.0204082" stop-color="#F1BA5B"/>
<stop offset="1" stop-color="#F4930B"/>
</linearGradient>
</defs>
</svg>
