<svg width="36" height="42" viewBox="0 0 36 42" fill="none" xmlns="http://www.w3.org/2000/svg">
<path fill-rule="evenodd" clip-rule="evenodd" d="M32.9629 0.570755C33.4761 1.22104 33.365 2.16427 32.7147 2.67751C30.2239 4.64338 29.2584 6.55121 27.7805 9.75333C26.7117 12.069 26.0749 14.5536 25.8944 17.085C28.5284 16.996 31.3328 16.9616 34.4468 17.0002C35.2752 17.0104 35.9384 17.6903 35.9282 18.5186C35.9179 19.347 35.2381 20.0102 34.4097 19.9999C31.2805 19.9612 28.4758 19.9968 25.8421 20.088C25.8121 23.2028 26.4731 26.2882 27.7805 29.1209C28.4562 30.5849 29.6825 32.455 31.1101 34.2516C32.5367 36.0469 34.0857 37.67 35.3576 38.6738C36.0079 39.187 36.119 40.1303 35.6057 40.7806C35.0925 41.4309 34.1493 41.542 33.499 41.0287C31.9808 39.8305 30.2697 38.0162 28.7613 36.118C27.2539 34.2209 25.8704 32.1412 25.0566 30.378C23.5854 27.1903 22.8307 23.7226 22.8412 20.2185C19.2382 20.4066 15.8619 20.6934 12.2655 21.0249C12.0509 24.4289 10.67 27.566 9.37211 30.378C7.78365 33.8197 5.40485 36.8376 2.42939 39.186C1.7791 39.6992 0.835877 39.5881 0.322635 38.9378C-0.190607 38.2875 -0.0795093 37.3443 0.570778 36.8311C3.17541 34.7754 5.25774 32.1336 6.64823 29.1209C7.89457 26.4205 8.9713 23.8893 9.23349 21.3079C6.87104 21.5295 4.37247 21.763 1.62622 21.9947C0.80073 22.0644 0.075062 21.4517 0.00539808 20.6262C-0.0642657 19.8007 0.548455 19.075 1.37395 19.0054C4.17725 18.7688 6.73563 18.5286 9.16693 18.3003C9.19828 18.2974 9.22961 18.2945 9.26091 18.2915C9.05528 15.4925 7.92759 12.5253 6.64823 9.75333C5.33001 6.89718 3.82513 5.39659 2.84437 4.41863C2.80358 4.37795 2.76369 4.33818 2.72476 4.29925C2.13898 3.71346 2.13898 2.76371 2.72476 2.17793C3.31055 1.59214 4.2603 1.59214 4.84608 2.17793C4.8858 2.21764 4.92683 2.25855 4.96909 2.30068C6.01763 3.34611 7.82843 5.15151 9.37211 8.49616C10.6553 11.2763 11.9858 14.6341 12.2479 18.0132C15.8299 17.6844 19.2338 17.3992 22.8801 17.213C23.0517 14.2033 23.7877 11.2456 25.0566 8.49616C26.5577 5.24388 27.7668 2.76085 30.8561 0.322611C31.5064 -0.190631 32.4496 -0.0795328 32.9629 0.570755Z" fill="url(#paint0_linear_274_6161)"/>
<defs>
<linearGradient id="paint0_linear_274_6161" x1="17.9642" y1="0" x2="17.9642" y2="41.3513" gradientUnits="userSpaceOnUse">
<stop offset="0.0204082" stop-color="#F1BA5B"/>
<stop offset="1" stop-color="#F4930B"/>
</linearGradient>
</defs>
</svg>
