<svg width="41" height="41" viewBox="0 0 41 41" fill="none" xmlns="http://www.w3.org/2000/svg">
<path fill-rule="evenodd" clip-rule="evenodd" d="M18.0705 4.99186C18.0705 4.18364 18.7421 3.52844 19.5705 3.52844H34.642C35.426 3.52844 36.0778 4.11754 36.1376 4.88023C36.6022 10.805 36.5779 13.9116 36.1368 19.0513C36.0676 19.8567 35.3424 20.4549 34.5168 20.3875C33.6913 20.32 33.0781 19.6124 33.1472 18.807C33.4798 14.9323 33.5686 12.286 33.3777 8.57616C27.9063 14.5667 24.0945 18.7233 20.3111 22.5775C22.7241 24.2069 25.178 25.5258 28.1461 26.7292C28.9111 27.0393 29.2736 27.8958 28.9557 28.6421C28.6378 29.3885 27.7599 29.7421 26.9949 29.4319C23.6337 28.0692 20.8797 26.5561 18.1946 24.7043C14.1495 28.7129 9.79774 32.7016 3.21641 38.4759C2.60044 39.0163 1.65202 38.9673 1.09807 38.3663C0.544114 37.7654 0.594394 36.8401 1.21037 36.2996C7.58684 30.7051 11.8423 26.8121 15.7716 22.9331C13.127 20.897 10.3924 18.4793 7.05774 15.5015C6.44665 14.9558 6.40469 14.0301 6.96403 13.4339C7.52336 12.8377 8.47218 12.7968 9.08327 13.3425C12.5337 16.4236 15.2729 18.8385 17.8774 20.8246C21.7523 16.8907 25.6248 12.6656 31.2966 6.45527H19.5705C18.7421 6.45527 18.0705 5.80008 18.0705 4.99186Z" fill="url(#paint0_linear_274_6166)"/>
<defs>
<linearGradient id="paint0_linear_274_6166" x1="18.5951" y1="3.52844" x2="18.5951" y2="38.8512" gradientUnits="userSpaceOnUse">
<stop offset="0.0204082" stop-color="#F1BA5B"/>
<stop offset="1" stop-color="#F4930B"/>
</linearGradient>
</defs>
</svg>
