<svg width="42" height="41" viewBox="0 0 42 41" fill="none" xmlns="http://www.w3.org/2000/svg">
<path fill-rule="evenodd" clip-rule="evenodd" d="M8.14286 7.88989C7.02516 7.88989 5.95324 8.3339 5.16291 9.12423C4.37258 9.91456 3.92857 10.9865 3.92857 12.1042V29.247C3.92857 30.0755 3.257 30.747 2.42857 30.747C1.60015 30.747 0.928574 30.0755 0.928574 29.247V12.1042C0.928574 10.1908 1.68865 8.35585 3.04159 7.00291C4.39453 5.64997 6.22951 4.88989 8.14286 4.88989C10.0562 4.88989 11.8912 5.64997 13.2441 7.00291C13.4644 7.22321 13.669 7.45628 13.8571 7.7004C14.0453 7.45628 14.2499 7.22321 14.4702 7.00291C15.8231 5.64997 17.6581 4.88989 19.5714 4.88989C21.4848 4.88989 23.3198 5.64997 24.6727 7.00291C26.0256 8.35585 26.7857 10.1908 26.7857 12.1042V29.247C26.7857 30.3647 27.2297 31.4367 28.0201 32.227C28.8104 33.0173 29.8823 33.4613 31 33.4613C32.1177 33.4613 33.1896 33.0173 33.98 32.227C34.7703 31.4367 35.2143 30.3647 35.2143 29.247V23.5327C35.2143 22.7043 35.8859 22.0327 36.7143 22.0327C37.5427 22.0327 38.2143 22.7043 38.2143 23.5327V29.247C38.2143 31.1604 37.4542 32.9954 36.1013 34.3483C34.7483 35.7012 32.9134 36.4613 31 36.4613C29.0867 36.4613 27.2517 35.7012 25.8987 34.3483C24.5458 32.9954 23.7857 31.1604 23.7857 29.247V12.1042C23.7857 10.9865 23.3417 9.91456 22.5514 9.12423C21.7611 8.3339 20.6891 7.88989 19.5714 7.88989C18.4537 7.88989 17.3818 8.3339 16.5915 9.12423C15.8012 9.91456 15.3571 10.9865 15.3571 12.1042C15.3571 12.9326 14.6856 13.6042 13.8571 13.6042C13.0287 13.6042 12.3571 12.9326 12.3571 12.1042C12.3571 10.9865 11.9131 9.91456 11.1228 9.12423C10.3325 8.3339 9.26056 7.88989 8.14286 7.88989Z" fill="url(#paint0_linear_274_6168)"/>
<path fill-rule="evenodd" clip-rule="evenodd" d="M13.844 10.6042C14.6724 10.597 15.3498 11.2626 15.3571 12.091C15.4161 18.8125 15.5685 22.1547 15.9954 27.6219C16.0599 28.4478 15.4427 29.1697 14.6168 29.2342C13.7909 29.2987 13.0691 28.6814 13.0046 27.8555C12.5717 22.3135 12.4168 18.9019 12.3572 12.1174C12.3499 11.289 13.0156 10.6115 13.844 10.6042ZM35.6536 22.4721C36.2394 21.8863 37.1892 21.8863 37.7749 22.4721L40.6321 25.3292C41.2179 25.915 41.2179 26.8648 40.6321 27.4506C40.0463 28.0364 39.0966 28.0364 38.5108 27.4506L36.7143 25.6541L34.9178 27.4506C34.332 28.0364 33.3823 28.0364 32.7965 27.4506C32.2107 26.8648 32.2107 25.915 32.7965 25.3292L35.6536 22.4721Z" fill="url(#paint1_linear_274_6168)"/>
<defs>
<linearGradient id="paint0_linear_274_6168" x1="19.5714" y1="4.88989" x2="19.5714" y2="36.4613" gradientUnits="userSpaceOnUse">
<stop offset="0.0204082" stop-color="#F1BA5B"/>
<stop offset="1" stop-color="#F4930B"/>
</linearGradient>
<linearGradient id="paint1_linear_274_6168" x1="26.7143" y1="10.6042" x2="26.7143" y2="29.2388" gradientUnits="userSpaceOnUse">
<stop offset="0.0204082" stop-color="#F1BA5B"/>
<stop offset="1" stop-color="#F4930B"/>
</linearGradient>
</defs>
</svg>
