<svg width="40" height="41" viewBox="0 0 40 41" fill="none" xmlns="http://www.w3.org/2000/svg">
<path fill-rule="evenodd" clip-rule="evenodd" d="M12.5328 18.7559C14.7836 16.6075 17.822 15.412 20.9763 15.412C22.4427 15.412 24.1868 15.5407 25.8522 15.9319C27.494 16.3176 29.2094 16.993 30.4675 18.1938C32.7206 20.3445 34.0002 23.2768 34.0002 26.3499C34.0002 28.0509 33.3232 29.7596 32.4744 31.2139C31.613 32.6898 30.4929 34.0438 29.4198 35.0681C27.1691 37.2166 24.1307 38.412 20.9763 38.412C17.822 38.412 14.7836 37.2166 12.5328 35.0681C10.2797 32.9174 9.00015 29.9851 9.00015 26.912C9.00015 23.8389 10.2797 20.9067 12.5328 18.7559ZM20.9763 18.412C18.5738 18.412 16.2828 19.3237 14.6043 20.926C12.9281 22.526 12.0002 24.6808 12.0002 26.912C12.0002 29.1433 12.9281 31.2981 14.6043 32.8981C16.2828 34.5004 18.5738 35.412 20.9763 35.412C23.3789 35.412 25.6698 34.5004 27.3484 32.8981C28.24 32.047 29.1779 30.9106 29.8834 29.7017C30.6015 28.4713 31.0002 27.3011 31.0002 26.3499C31.0002 24.1187 30.0722 21.9639 28.396 20.3639C27.6894 19.6894 26.5663 19.1813 25.1662 18.8524C23.7897 18.5291 22.2885 18.412 20.9763 18.412Z" fill="url(#paint0_linear_274_6164)"/>
<path fill-rule="evenodd" clip-rule="evenodd" d="M7.32723 2.36347C8.15013 2.26797 8.89464 2.85765 8.99014 3.68056C9.31123 6.44738 10.6379 8.99973 12.7179 10.8523C14.7979 12.7049 17.4862 13.7285 20.2716 13.7285C21.8287 13.7285 23.4045 13.6736 24.8515 13.3874C26.2959 13.1018 27.5091 12.6048 28.4168 11.7963C29.5803 10.76 30.2603 10.0483 30.7026 9.1531C31.1402 8.26726 31.4144 7.05092 31.4144 4.91646C31.4144 4.08804 32.086 3.41646 32.9144 3.41646C33.7428 3.41646 34.4144 4.08804 34.4144 4.91646C34.4144 7.28201 34.116 9.01703 33.3923 10.4819C32.6732 11.9373 31.6033 12.9756 30.4121 14.0366C28.965 15.3254 27.1835 15.9844 25.4334 16.3304C23.686 16.676 21.8677 16.7285 20.2716 16.7285C16.7504 16.7285 13.352 15.4345 10.7226 13.0926C8.09317 10.7506 6.41605 7.52407 6.01014 4.02639C5.91464 3.20349 6.50432 2.45897 7.32723 2.36347Z" fill="url(#paint1_linear_274_6164)"/>
<defs>
<linearGradient id="paint0_linear_274_6164" x1="21.5002" y1="15.412" x2="21.5002" y2="38.412" gradientUnits="userSpaceOnUse">
<stop offset="0.0204082" stop-color="#F1BA5B"/>
<stop offset="1" stop-color="#F4930B"/>
</linearGradient>
<linearGradient id="paint1_linear_274_6164" x1="20.2072" y1="2.35333" x2="20.2072" y2="16.7285" gradientUnits="userSpaceOnUse">
<stop offset="0.0204082" stop-color="#F1BA5B"/>
<stop offset="1" stop-color="#F4930B"/>
</linearGradient>
</defs>
</svg>
