<svg width="42" height="41" viewBox="0 0 42 41" fill="none" xmlns="http://www.w3.org/2000/svg">
<path fill-rule="evenodd" clip-rule="evenodd" d="M1.57496 33.4171C2.25616 33.8885 3.19056 33.7185 3.662 33.0373C6.20386 29.3644 7.71774 27.4658 10.6157 24.2414C10.6195 24.2371 10.6232 24.2329 10.627 24.2286C10.6304 24.2248 10.6337 24.2209 10.6371 24.217C10.7584 24.0761 10.9073 23.9615 11.0747 23.8805C11.2421 23.7995 11.4243 23.7538 11.6101 23.7462C11.7959 23.7385 11.9813 23.7692 12.1548 23.8361C12.299 23.8919 12.4325 23.9718 12.5496 24.0722L17.6827 30.9652C17.7248 31.0219 17.771 31.0755 17.8207 31.1257C18.2258 31.534 18.7077 31.8582 19.2386 32.0794C19.7696 32.3006 20.3391 32.4145 20.9143 32.4145C21.4895 32.4145 22.059 32.3006 22.5899 32.0794C23.1199 31.8586 23.601 31.5352 24.0056 31.1279C24.0064 31.1272 24.0071 31.1264 24.0079 31.1257L29.7132 25.4203C29.845 25.2913 30.0017 25.1904 30.1738 25.1239C30.3473 25.057 30.5327 25.0263 30.7185 25.034C30.9043 25.0416 31.0865 25.0873 31.2539 25.1683C31.4213 25.2493 31.5702 25.3639 31.6915 25.5048L31.7028 25.5178L38.4457 33.175C38.9932 33.7967 39.941 33.8569 40.5628 33.3094C41.1845 32.7619 41.2447 31.814 40.6972 31.1923L33.9595 23.541C33.5712 23.0918 33.0952 22.7266 32.5607 22.4679C32.0233 22.2078 31.4382 22.061 30.8417 22.0365C30.2452 22.012 29.65 22.1103 29.0931 22.3254C28.5362 22.5405 28.0294 22.8677 27.6042 23.2868L27.5965 23.2944L27.5965 23.2944L21.8822 29.0087L21.8779 29.0131C21.7517 29.1403 21.6016 29.2412 21.4362 29.3101C21.2708 29.379 21.0935 29.4145 20.9143 29.4145C20.7351 29.4145 20.5577 29.379 20.3924 29.3101C20.2537 29.2523 20.1258 29.172 20.0137 29.0726L14.8745 22.1714C14.8289 22.1102 14.7787 22.0525 14.7244 21.9989C14.2992 21.5799 13.7924 21.2527 13.2355 21.0376C12.6786 20.8225 12.0834 20.7242 11.4869 20.7487C10.8904 20.7732 10.3053 20.92 9.76794 21.1801C9.23591 21.4375 8.76188 21.8005 8.37464 22.2469C5.40079 25.5562 3.80844 27.554 1.19515 31.33C0.723712 32.0112 0.893758 32.9456 1.57496 33.4171ZM1.71985 19.2199C2.44998 19.6114 3.35917 19.3368 3.75059 18.6067C3.93327 18.2659 4.11798 17.9128 4.30661 17.5522C5.10707 16.022 5.978 14.3571 7.06392 12.928C8.40673 11.1608 9.81775 10.1136 11.415 10.048C11.6008 10.0404 11.7862 10.071 11.9596 10.138C12.1156 10.1982 12.2588 10.2866 12.3824 10.3987L17.739 16.7506C17.765 16.7815 17.7923 16.8113 17.8207 16.8399C18.2258 17.2483 18.7077 17.5725 19.2386 17.7937C19.7696 18.0149 20.3391 18.1288 20.9143 18.1288C21.4895 18.1288 22.059 18.0149 22.5899 17.7937C23.12 17.5729 23.6011 17.2495 24.0057 16.8421C24.0064 16.8414 24.0071 16.8407 24.0079 16.8399L29.7132 11.1347C29.845 11.0056 30.0017 10.9047 30.1738 10.8382C30.3473 10.7712 30.5327 10.7406 30.7185 10.7483C30.9043 10.7559 31.0865 10.8016 31.2539 10.8826C31.4213 10.9636 31.5702 11.0781 31.6915 11.2191L31.7028 11.2321L38.4457 18.8892C38.9932 19.511 39.941 19.5712 40.5628 19.0237C41.1845 18.4762 41.2447 17.5283 40.6972 16.9066L33.9595 9.25537C33.5713 8.80607 33.0952 8.44085 32.5607 8.18217C32.0233 7.92213 31.4382 7.7753 30.8417 7.75078C30.2452 7.72627 29.65 7.8246 29.0931 8.03967C28.5362 8.25474 28.0294 8.58197 27.6042 9.00104L27.5965 9.00867L27.5965 9.0087L21.8822 14.723L21.8779 14.7273C21.7517 14.8545 21.6016 14.9555 21.4362 15.0244C21.2708 15.0933 21.0935 15.1288 20.9143 15.1288C20.7351 15.1288 20.5577 15.0933 20.3924 15.0244C20.2422 14.9618 20.1047 14.8729 19.9862 14.7618L14.623 8.4021C14.5934 8.3669 14.5621 8.3331 14.5293 8.30078C14.1041 7.88171 13.5973 7.55448 13.0404 7.33941C12.4835 7.12434 11.8883 7.02601 11.2918 7.05053C8.34522 7.17162 6.20389 9.10122 4.67528 11.1129C3.41951 12.7655 2.40145 14.7161 1.60011 16.2514C1.42536 16.5862 1.26092 16.9013 1.10657 17.1892C0.71515 17.9193 0.989725 18.8285 1.71985 19.2199Z" fill="url(#paint0_linear_274_6165)"/>
<defs>
<linearGradient id="paint0_linear_274_6165" x1="20.9999" y1="33.6838" x2="20.9999" y2="7.04685" gradientUnits="userSpaceOnUse">
<stop offset="0.0204082" stop-color="#F1BA5B"/>
<stop offset="1" stop-color="#F4930B"/>
</linearGradient>
</defs>
</svg>
