<svg width="42" height="41" viewBox="0 0 42 41" fill="none" xmlns="http://www.w3.org/2000/svg">
<path fill-rule="evenodd" clip-rule="evenodd" d="M8.85715 5.03278C7.55001 5.03278 6.2964 5.55203 5.37212 6.47632C4.44783 7.40061 3.92857 8.65421 3.92857 9.96135V29.2471C3.92857 30.0755 3.257 30.7471 2.42857 30.7471C1.60015 30.7471 0.928574 30.0755 0.928574 29.2471V9.96135C0.928574 7.85856 1.7639 5.8419 3.2508 4.355C4.73769 2.86811 6.75436 2.03278 8.85715 2.03278C10.9599 2.03278 12.9766 2.86811 14.4635 4.355C14.7648 4.65635 15.0394 4.97946 15.2857 5.32063C15.532 4.97946 15.8066 4.65635 16.1079 4.355C17.5948 2.86811 19.6115 2.03278 21.7143 2.03278C23.8171 2.03278 25.8337 2.86811 27.3206 4.355C28.8075 5.8419 29.6429 7.85856 29.6429 9.96135V32.1042C29.6429 33.2219 30.0869 34.2938 30.8772 35.0842C31.6675 35.8745 32.7395 36.3185 33.8571 36.3185C34.9748 36.3185 36.0468 35.8745 36.8371 35.0842C37.6274 34.2938 38.0714 33.2219 38.0714 32.1042V30.7386C38.0714 29.9102 38.743 29.2386 39.5714 29.2386C40.3999 29.2386 41.0714 29.9102 41.0714 30.7386V32.1042C41.0714 34.0175 40.3114 35.8525 38.9584 37.2055C37.6055 38.5584 35.7705 39.3185 33.8571 39.3185C31.9438 39.3185 30.1088 38.5584 28.7559 37.2055C27.4029 35.8525 26.6429 34.0175 26.6429 32.1042V9.96135C26.6429 8.65421 26.1236 7.40061 25.1993 6.47632C24.275 5.55203 23.0214 5.03278 21.7143 5.03278C20.4072 5.03278 19.1536 5.55203 18.2293 6.47632C17.305 7.40061 16.7857 8.65421 16.7857 9.96135V29.2471C16.7857 30.0755 16.1141 30.7471 15.2857 30.7471C14.4573 30.7471 13.7857 30.0755 13.7857 29.2471V9.96135C13.7857 8.65421 13.2665 7.40061 12.3422 6.47632C11.4179 5.55203 10.1643 5.03278 8.85715 5.03278Z" fill="url(#paint0_linear_274_6170)"/>
<path fill-rule="evenodd" clip-rule="evenodd" d="M32.13 12.9976C31.3948 12.8949 30.3867 13.3671 29.625 14.2308C29.0771 14.8521 28.1292 14.9116 27.5079 14.3637C26.8865 13.8157 26.827 12.8679 27.375 12.2465C28.4712 11.0035 30.4009 9.72691 32.5451 10.0265C34.8834 10.3532 36.5826 12.3846 37.4552 15.8749C38.1868 18.8014 37.7383 22.0033 36.7006 24.8654C35.6603 27.735 33.9774 30.4062 32.0541 32.3059C29.9282 34.4056 27.2221 34.9538 24.9672 34.2094C22.7167 33.4664 21 31.4386 21 28.7387C21 27.9102 21.6716 27.2387 22.5 27.2387C23.3284 27.2387 24 27.9102 24 28.7387C24 30.0388 24.7833 30.9894 25.9078 31.3606C27.0279 31.7305 28.5718 31.5287 29.9459 30.1715C31.5226 28.6142 32.977 26.3345 33.8803 23.8429C34.7863 21.3439 35.0877 18.7742 34.5448 16.6025C33.793 13.5952 32.6711 13.0732 32.13 12.9976Z" fill="url(#paint1_linear_274_6170)"/>
<defs>
<linearGradient id="paint0_linear_274_6170" x1="21" y1="2.03278" x2="21" y2="39.3185" gradientUnits="userSpaceOnUse">
<stop offset="0.0204082" stop-color="#F1BA5B"/>
<stop offset="1" stop-color="#F4930B"/>
</linearGradient>
<linearGradient id="paint1_linear_274_6170" x1="29.4077" y1="9.9823" x2="29.4077" y2="34.525" gradientUnits="userSpaceOnUse">
<stop offset="0.0204082" stop-color="#F1BA5B"/>
<stop offset="1" stop-color="#F4930B"/>
</linearGradient>
</defs>
</svg>
