<svg width="40" height="41" viewBox="0 0 40 41" fill="none" xmlns="http://www.w3.org/2000/svg">
<path d="M12.2422 20.3513H1.25C0.5625 20.3513 0 20.9138 0 21.6013V24.1013C0 24.7888 0.5625 25.3513 1.25 25.3513H12.3594C13.6016 25.3513 14.7656 26.2029 14.9688 27.4295C15.2266 28.992 14.0234 30.3513 12.5 30.3513C11.3984 30.3513 10.4609 29.6326 10.125 28.6404C9.96094 28.1482 9.45313 27.8513 8.9375 27.8513H6.375C5.60937 27.8513 4.99219 28.5388 5.13281 29.2888C5.80469 32.7341 8.85156 35.3513 12.4922 35.3513C16.9531 35.3513 20.5156 31.4373 19.9297 26.867C19.4531 23.0857 16.0469 20.3513 12.2422 20.3513ZM1.25 17.8513H27.5C32.1641 17.8513 35.8437 13.5701 34.8281 8.73415C34.2344 5.90602 31.9453 3.61696 29.1172 3.02321C24.7891 2.11696 20.9062 4.96852 20.1406 8.92165C19.9922 9.67165 20.6172 10.3513 21.375 10.3513H23.9375C24.4609 10.3513 24.9609 10.0545 25.125 9.56227C25.4609 8.57008 26.3984 7.85133 27.5 7.85133C29.0156 7.85133 30.2266 9.21071 29.9688 10.7732C29.7656 11.9998 28.6094 12.8513 27.3594 12.8513H1.25C0.5625 12.8513 0 13.4138 0 14.1013V16.6013C0 17.2888 0.5625 17.8513 1.25 17.8513ZM31.25 20.3513H19.0391C20.5469 21.6482 21.6328 23.3826 22.1484 25.3513H31.25C33.3203 25.3513 35 27.031 35 29.1013C35 31.1716 33.3203 32.8513 31.25 32.8513C29.8516 32.8513 28.6484 32.0779 28 30.9451C27.7734 30.5545 27.3203 30.3513 26.8672 30.3513H24.2266C23.375 30.3513 22.7422 31.1951 23.0312 31.9998C24.4219 35.9529 28.5391 38.6248 33.1406 37.6482C36.3594 36.9685 39.0078 34.3982 39.7578 31.1873C41.0937 25.4685 36.7578 20.3513 31.25 20.3513Z" fill="url(#paint0_linear_297_6940)"/>
<defs>
<linearGradient id="paint0_linear_297_6940" x1="0" y1="20.3523" x2="40.0017" y2="20.3523" gradientUnits="userSpaceOnUse">
<stop offset="0.0204082" stop-color="#BACDF6"/>
<stop offset="1" stop-color="#FAFFFE"/>
</linearGradient>
</defs>
</svg>
