<svg width="40" height="41" viewBox="0 0 40 41" fill="none" xmlns="http://www.w3.org/2000/svg">
<path d="M22.7183 4.55633C21.922 3.98891 20.9686 3.68396 19.9908 3.68396C19.0131 3.68396 18.0596 3.98891 17.2633 4.55633C12.8267 7.893 5.40334 14.5647 5.40334 22.4563C5.40334 33.1297 14.1283 37.018 20 37.018C25.8717 37.018 34.5967 33.1313 34.5967 22.4547C34.5967 14.5813 27.1567 7.86133 22.7183 4.55633ZM20 32.4647C18.6831 32.4661 17.3788 32.2075 16.1621 31.7035C14.9454 31.1996 13.8402 30.4602 12.91 29.528C11.9798 28.6041 11.2428 27.5044 10.7418 26.2929C10.2408 25.0814 9.98577 23.7823 9.99167 22.4713C9.99167 22.2524 10.0348 22.0355 10.1186 21.8332C10.2024 21.6309 10.3252 21.4471 10.4801 21.2922C10.6349 21.1374 10.8187 21.0146 11.021 20.9308C11.2234 20.847 11.4402 20.8038 11.6592 20.8038C11.8781 20.8038 12.095 20.847 12.2973 20.9308C12.4996 21.0146 12.6834 21.1374 12.8383 21.2922C12.9931 21.4471 13.1159 21.6309 13.1997 21.8332C13.2835 22.0355 13.3267 22.2524 13.3267 22.4713C13.3203 23.3463 13.4898 24.2136 13.8251 25.0219C14.1603 25.8301 14.6545 26.5627 15.2783 27.1763C15.8985 27.7958 16.6348 28.2869 17.445 28.6215C18.2552 28.9561 19.1234 29.1277 20 29.1263C20.4427 29.1263 20.8673 29.3022 21.1803 29.6152C21.4933 29.9282 21.6692 30.3528 21.6692 30.7955C21.6692 31.2382 21.4933 31.6627 21.1803 31.9758C20.8673 32.2888 20.4427 32.4647 20 32.4647Z" fill="url(#paint0_linear_297_6939)"/>
<defs>
<linearGradient id="paint0_linear_297_6939" x1="20" y1="3.68396" x2="20" y2="37.018" gradientUnits="userSpaceOnUse">
<stop stop-color="#19FFD9"/>
<stop offset="1" stop-color="#94B4FF"/>
</linearGradient>
</defs>
</svg>
