<svg width="40" height="41" viewBox="0 0 40 41" fill="none" xmlns="http://www.w3.org/2000/svg">
<path d="M32.1499 18.4744C31.6571 17.8244 31.0572 17.2611 30.5002 16.6977C29.0647 15.3977 27.4364 14.466 26.0653 13.101C22.873 9.93754 22.166 4.71572 24.2013 0.707275C22.166 1.20562 20.3877 2.33232 18.8666 3.56736C13.3176 8.07415 11.1323 16.026 13.7461 22.8512C13.8318 23.0679 13.9175 23.2846 13.9175 23.5663C13.9175 24.0429 13.5961 24.4763 13.1676 24.6496C12.6749 24.8663 12.1607 24.7363 11.7536 24.3896C11.632 24.2866 11.5303 24.1617 11.4537 24.0213C9.03267 20.9229 8.64702 16.4811 10.2753 12.9276C6.69738 15.8744 4.74774 20.8579 5.02626 25.5597C5.15481 26.643 5.28336 27.7264 5.64757 28.8097C5.94752 30.1098 6.52599 31.4098 7.16872 32.5582C9.48259 36.3066 13.489 38.9934 17.7954 39.5351C22.3802 40.1201 27.2865 39.275 30.8001 36.0683C34.7208 32.4715 36.092 26.708 34.0781 21.7679L33.7996 21.2045C33.3496 20.2078 32.1499 18.4744 32.1499 18.4744ZM25.3797 32.1248C24.7798 32.6449 23.7943 33.2082 23.023 33.4249C20.6234 34.2916 18.2238 33.0782 16.8098 31.6482C19.3593 31.0415 20.8805 29.1348 21.3304 27.2064C21.6946 25.473 21.009 24.0429 20.7305 22.3746C20.4734 20.7712 20.5163 19.4061 21.0947 17.9111C21.5018 18.7345 21.9303 19.5578 22.4445 20.2078C24.0942 22.3746 26.6866 23.3279 27.2436 26.2747C27.3293 26.578 27.3722 26.8814 27.3722 27.2064C27.4364 28.9831 26.6652 30.9331 25.3797 32.1248Z" fill="url(#paint0_linear_297_6941)"/>
<defs>
<linearGradient id="paint0_linear_297_6941" x1="20" y1="0.707275" x2="20" y2="39.7073" gradientUnits="userSpaceOnUse">
<stop stop-color="#F6AE31"/>
<stop offset="1" stop-color="#FF2B7C"/>
</linearGradient>
</defs>
</svg>
