<svg width="40" height="41" viewBox="0 0 40 41" fill="none" xmlns="http://www.w3.org/2000/svg">
<path d="M3.33334 37.018V33.6847C3.33334 33.6847 11.6667 30.3513 20 30.3513C28.3333 30.3513 36.6667 33.6847 36.6667 33.6847V37.018H3.33334ZM18.8333 15.518C16.8333 9.01799 6.66668 10.518 6.66668 10.518C6.66668 10.518 7.00001 23.518 16.5 21.518C15.8333 16.6847 13.3333 15.3513 13.3333 15.3513C18 15.3513 18.3333 21.018 18.3333 21.018V28.6847H21.6667V21.6847C21.6667 21.6847 21.6667 15.1847 26.6667 13.518C26.6667 13.518 23.3333 18.518 23.3333 21.8513C35 23.018 35 7.01799 35 7.01799C35 7.01799 20.1667 5.35133 18.8333 15.518Z" fill="url(#paint0_linear_297_6938)"/>
<defs>
<linearGradient id="paint0_linear_297_6938" x1="20" y1="6.91638" x2="20" y2="37.018" gradientUnits="userSpaceOnUse">
<stop offset="0.0204082" stop-color="#2AFF9F"/>
<stop offset="1" stop-color="#73AC00"/>
</linearGradient>
</defs>
</svg>
